<svg width="1302" height="435" viewBox="0 0 1302 435" fill="none" xmlns="http://www.w3.org/2000/svg">
<path d="M0.666667 5.87988C0.666667 8.8254 3.05448 11.2132 6 11.2132C8.94552 11.2132 11.3333 8.8254 11.3333 5.87988C11.3333 2.93436 8.94552 0.546549 6 0.546549C3.05448 0.546549 0.666667 2.93436 0.666667 5.87988ZM1290.67 5.87988C1290.67 8.8254 1293.05 11.2132 1296 11.2132C1298.95 11.2132 1301.33 8.8254 1301.33 5.87988C1301.33 2.93436 1298.95 0.546549 1296 0.546549C1293.05 0.546549 1290.67 2.93436 1290.67 5.87988ZM6 6.87988H358V4.87988H6V6.87988ZM407 55.8799V384H409V55.8799H407ZM896 384V55.8798H894V384H896ZM945 6.87988H1296V4.87988H945V6.87988ZM458 435H654.75V433H458V435ZM654.75 435H845V433H654.75V435ZM896 55.8798C896 28.8179 917.938 6.87988 945 6.87988V4.87988C916.833 4.87988 894 27.7133 894 55.8798H896ZM894 384C894 411.062 872.062 433 845 433V435C873.167 435 896 412.166 896 384H894ZM407 384C407 412.166 429.833 435 458 435V433C430.938 433 409 411.062 409 384H407ZM358 6.87988C385.062 6.87988 407 28.8179 407 55.8799H409C409 27.7134 386.167 4.87988 358 4.87988V6.87988Z" fill="white"/>
</svg>
